<svg width="160" height="160" viewBox="0 0 160 160" fill="none" xmlns="http://www.w3.org/2000/svg">
<rect width="160" height="160" fill="#4DD699"/>
<path d="M79.5626 116.858C69.8956 116.846 60.6277 113.001 53.7921 106.165C46.9565 99.3298 43.1113 90.062 43.1 80.3949H54.5733C54.5744 86.0242 56.4762 91.4882 59.9706 95.9017C63.4649 100.315 68.347 103.42 73.826 104.712V80.3949H68.4553V68.9216H73.826V55.4226H68.4553V45.6686C71.899 43.9787 75.6841 43.1001 79.5201 43.1001C83.3561 43.1001 87.1411 43.9787 90.5848 45.6686V55.4226H85.2823V68.9216H90.6444V80.3949H85.2823V104.712C90.7597 103.418 95.6399 100.313 99.1325 95.8995C102.625 91.4862 104.526 86.0231 104.526 80.3949H116.008C116.008 90.0664 112.17 99.3426 105.337 106.187C98.504 113.031 89.2341 116.884 79.5626 116.9V116.858Z" fill="white"/>
<path d="M79.5626 116.858C69.8956 116.846 60.6277 113.001 53.7921 106.165C46.9565 99.3298 43.1113 90.062 43.1 80.3949H54.5733C54.5744 86.0242 56.4762 91.4882 59.9706 95.9017C63.4649 100.315 68.347 103.42 73.826 104.712V80.3949H68.4553V68.9216H73.826V55.4226H68.4553V45.6686C71.899 43.9787 75.6841 43.1001 79.5201 43.1001C83.3561 43.1001 87.1411 43.9787 90.5848 45.6686V55.4226H85.2823V68.9216H90.6444V80.3949H85.2823V104.712C90.7597 103.418 95.6399 100.313 99.1325 95.8995C102.625 91.4862 104.526 86.0231 104.526 80.3949H116.008C116.008 90.0664 112.17 99.3426 105.337 106.187C98.504 113.031 89.2341 116.884 79.5626 116.9V116.858Z" fill="white"/>
</svg>
