<svg width="184" height="184" viewBox="0 0 184 184" fill="none" xmlns="http://www.w3.org/2000/svg">
<g filter="url(#filter0_dd_175_13453)">
<g clip-path="url(#clip0_175_13453)">
<rect width="160" height="160" transform="translate(10 8)" fill="#0083AC"/>
<path fill-rule="evenodd" clip-rule="evenodd" d="M69.9855 71.637C68.5044 69.9771 67.1395 69.0201 64.5281 69.0201H61.3144C60.6928 69.0201 60 68.44 60 67.607V60.4419C60 59.6603 60.6064 59 61.3239 59H69.6385C75.3671 59 77.7959 61.4908 81.2848 65.5557L86.2644 71.357L78.0042 80.9796L69.9855 71.637ZM61.3239 114C60.6064 114 60 113.339 60 112.559V105.392C60 104.561 60.6928 103.982 61.3144 103.982H64.5281C67.1395 103.982 68.5044 103.024 69.9788 101.371L100.717 65.5557C104.54 61.0994 106.937 59 112.363 59H120.677C121.395 59 122 59.6603 122 60.4419V67.607C122 68.44 121.311 69.0201 120.69 69.0201H117.474C114.861 69.0201 113.497 69.9771 112.022 71.631L81.2848 107.445C77.7959 111.509 75.3671 114 69.6385 114H61.3239ZM112.363 114C106.937 114 104.54 111.901 100.717 107.445L95.7508 101.657L104.009 92.037L112.016 101.365C113.497 103.024 114.861 103.982 117.474 103.982H120.69C121.311 103.982 122 104.561 122 105.392V112.559C122 113.339 121.395 114 120.677 114H112.363Z" fill="white"/>
</g>
</g>
<defs>
<filter id="filter0_dd_175_13453" x="0" y="0" width="184" height="184" filterUnits="userSpaceOnUse" color-interpolation-filters="sRGB">
<feFlood flood-opacity="0" result="BackgroundImageFix"/>
<feColorMatrix in="SourceAlpha" type="matrix" values="0 0 0 0 0 0 0 0 0 0 0 0 0 0 0 0 0 0 127 0" result="hardAlpha"/>
<feOffset dx="2" dy="4"/>
<feGaussianBlur stdDeviation="6"/>
<feComposite in2="hardAlpha" operator="out"/>
<feColorMatrix type="matrix" values="0 0 0 0 0 0 0 0 0 0 0 0 0 0 0 0 0 0 0.12 0"/>
<feBlend mode="normal" in2="BackgroundImageFix" result="effect1_dropShadow_175_13453"/>
<feColorMatrix in="SourceAlpha" type="matrix" values="0 0 0 0 0 0 0 0 0 0 0 0 0 0 0 0 0 0 127 0" result="hardAlpha"/>
<feOffset dx="2" dy="2"/>
<feGaussianBlur stdDeviation="2"/>
<feComposite in2="hardAlpha" operator="out"/>
<feColorMatrix type="matrix" values="0 0 0 0 0 0 0 0 0 0 0 0 0 0 0 0 0 0 0.04 0"/>
<feBlend mode="normal" in2="effect1_dropShadow_175_13453" result="effect2_dropShadow_175_13453"/>
<feBlend mode="normal" in="SourceGraphic" in2="effect2_dropShadow_175_13453" result="shape"/>
</filter>
<clipPath id="clip0_175_13453">
<rect x="10" y="8" width="160" height="160" rx="8" fill="white"/>
</clipPath>
</defs>
</svg>
