<svg width="184" height="184" viewBox="0 0 184 184" fill="none" xmlns="http://www.w3.org/2000/svg">
<g filter="url(#filter0_dd_175_13455)">
<g clip-path="url(#clip0_175_13455)">
<rect width="160" height="160" transform="translate(10 8)" fill="white"/>
<path d="M87.5639 94.3948L83.217 88.3279C81.9625 89.127 81.1164 90.7251 81.1164 92.2048C81.1164 94.5427 82.4584 95.9041 84.5882 95.9041C85.901 95.9041 86.7179 95.2826 87.5639 94.3948ZM84.7049 81.5508C84.7049 82.8826 85.1717 83.7408 85.9885 84.9838C87.4764 84.1847 88.2058 83.0601 88.2058 81.5212C88.2058 80.4854 87.6806 79.42 86.572 79.42C85.405 79.42 84.7049 80.3967 84.7049 81.5508ZM89.3727 96.4368C87.6515 97.8277 85.5801 98.1532 83.9755 98.1532C80.0662 98.1532 76.9153 96.0224 76.8278 92.4415C76.7695 89.3045 79.6577 87.1146 82.0208 86.4043C81.2915 85.4277 80.6496 84.3031 80.6496 82.7938C80.6496 79.3017 83.5671 77.6148 86.6887 77.6148C89.752 77.6148 91.9693 79.3313 91.9693 82.0539C91.9693 84.4215 89.6353 85.9012 87.4764 86.8482L90.423 91.2874C91.5025 89.7485 92.2027 88.2391 92.5819 86.7002C92.6111 86.5819 92.6986 86.3747 93.1071 86.3747H97.8333C98.0959 86.3747 98.4168 86.3451 98.2126 86.9074L97.6582 88.2095C97.5415 88.4759 97.3665 88.5943 97.1039 88.5943H96.4621C95.937 88.5943 95.7619 88.8902 95.441 89.3637C95.441 89.3637 94.77 90.4883 94.274 91.1986C93.5155 92.2936 93.3113 92.6487 92.1151 93.8621C92.1151 93.8621 93.0487 95.4601 94.9742 95.4601H95.8203C95.9661 95.4601 96.4329 95.401 96.1995 95.9337L95.616 97.3246C95.5285 97.5317 95.441 97.7093 95.0617 97.7093H93.1654C93.1654 97.7093 90.7731 97.8869 89.3727 96.4368ZM119.451 97.7093L113.062 76.2239L104.573 97.7093H119.451ZM143.083 113.72V116.798C143.083 117.301 142.762 117.597 142.266 117.626H119.831C119.335 117.626 119.043 117.301 119.043 116.827V113.749C119.043 113.246 119.364 112.95 119.831 112.95L121.698 112.891C123.157 112.862 123.507 112.151 123.536 111.471C123.536 111.175 123.477 110.879 123.419 110.642C123.273 110.021 122.806 108.57 122.806 108.57C122.806 108.57 121.494 104.279 120.677 101.941H102.91L99.9338 109.369C99.6129 110.139 99.4962 110.731 99.4962 111.204C99.4962 112.773 100.955 112.862 102.355 112.862L104.047 112.891C104.514 112.891 104.835 113.187 104.835 113.69V116.768C104.835 117.271 104.543 117.567 104.047 117.597H88.8768C88.41 117.597 88.0891 117.301 88.0891 116.798V113.72C88.0891 113.217 88.3808 112.921 88.8768 112.921L89.4019 112.891C89.4019 112.891 91.0357 112.95 91.9401 112.477C92.8737 112.003 93.2238 111.411 93.6322 110.464L113.121 63.0248C113.325 62.4921 113.733 62.3146 114.171 62.3146H120.385C120.91 62.3146 121.231 62.5809 121.377 63.0248C123.157 68.1742 137.656 110.228 137.656 110.257C138.356 112.24 139.027 112.891 141.332 112.921H142.295C142.762 112.891 143.083 113.217 143.083 113.72ZM79.2785 102.77V116.798C79.2785 117.301 78.9575 117.597 78.4907 117.597H75.3108C74.9898 117.597 74.7564 117.508 74.5522 117.094C74.3772 116.679 74.0271 116.176 73.2977 116.176C71.5473 116.176 68.3965 118.041 61.3946 118.041C45.5238 118.041 36.9174 104.723 36.9174 90.1036C36.9174 72.8205 47.2451 61.9594 61.3071 61.9594C65.7708 61.9594 68.2506 62.8768 69.7385 63.4983C70.9346 64.0606 71.4598 64.4158 72.2475 64.4158C73.3269 64.4158 73.6478 63.7943 74.0271 62.9656C74.2605 62.4921 74.4064 62.3146 74.7856 62.3146H77.9364C78.4032 62.3146 78.7241 62.6401 78.7241 63.1432V77.1709C78.7241 77.674 78.4324 77.9699 77.9364 77.9699H74.844C74.4063 77.9699 74.173 77.7924 74.0563 77.2301C72.8893 70.6305 70.5553 66.6353 63.291 66.6353C54.1302 66.6353 51.913 81.0181 51.913 88.1208C51.913 98.9227 53.1091 113.365 63.6702 113.365C71.3139 113.365 73.5895 108.955 74.5522 102.681C74.6689 102.06 75.0482 101.971 75.3399 101.971H78.4616C78.9284 101.941 79.2785 102.237 79.2785 102.77Z" fill="#010202"/>
</g>
</g>
<defs>
<filter id="filter0_dd_175_13455" x="0" y="0" width="184" height="184" filterUnits="userSpaceOnUse" color-interpolation-filters="sRGB">
<feFlood flood-opacity="0" result="BackgroundImageFix"/>
<feColorMatrix in="SourceAlpha" type="matrix" values="0 0 0 0 0 0 0 0 0 0 0 0 0 0 0 0 0 0 127 0" result="hardAlpha"/>
<feOffset dx="2" dy="4"/>
<feGaussianBlur stdDeviation="6"/>
<feComposite in2="hardAlpha" operator="out"/>
<feColorMatrix type="matrix" values="0 0 0 0 0 0 0 0 0 0 0 0 0 0 0 0 0 0 0.12 0"/>
<feBlend mode="normal" in2="BackgroundImageFix" result="effect1_dropShadow_175_13455"/>
<feColorMatrix in="SourceAlpha" type="matrix" values="0 0 0 0 0 0 0 0 0 0 0 0 0 0 0 0 0 0 127 0" result="hardAlpha"/>
<feOffset dx="2" dy="2"/>
<feGaussianBlur stdDeviation="2"/>
<feComposite in2="hardAlpha" operator="out"/>
<feColorMatrix type="matrix" values="0 0 0 0 0 0 0 0 0 0 0 0 0 0 0 0 0 0 0.04 0"/>
<feBlend mode="normal" in2="effect1_dropShadow_175_13455" result="effect2_dropShadow_175_13455"/>
<feBlend mode="normal" in="SourceGraphic" in2="effect2_dropShadow_175_13455" result="shape"/>
</filter>
<clipPath id="clip0_175_13455">
<rect x="10" y="8" width="160" height="160" rx="8" fill="white"/>
</clipPath>
</defs>
</svg>
