<svg xmlns="http://www.w3.org/2000/svg" width="184" height="184" viewBox="0 0 184 184"><rect width="100%" height="100%" fill="#DDDDDD"/><path fill="#999999" d="M61.01 100.87q.49 0 .87.38l2.39 2.59q-1.98 2.45-4.87 3.76-2.89 1.3-6.94 1.3-3.63 0-6.52-1.24-2.89-1.23-4.94-3.44-2.04-2.2-3.13-5.26-1.1-3.06-1.1-6.69 0-3.66 1.17-6.71t3.3-5.26q2.13-2.2 5.07-3.43 2.95-1.22 6.53-1.22 3.55 0 6.31 1.17t4.69 3.06l-2.02 2.81q-.18.27-.46.47-.29.2-.78.2-.34 0-.7-.19-.36-.19-.79-.47-.42-.28-.99-.62-.56-.34-1.3-.62-.74-.28-1.72-.47-.98-.19-2.26-.19-2.19 0-4 .77-1.81.78-3.11 2.25-1.31 1.48-2.03 3.6-.72 2.13-.72 4.85 0 2.75.78 4.89.77 2.13 2.1 3.59 1.33 1.47 3.13 2.24 1.8.78 3.87.78 1.24 0 2.24-.14 1-.13 1.84-.42.85-.3 1.6-.76.75-.46 1.5-1.13.22-.2.47-.33.25-.12.52-.12Zm11.36-14.4.38 1.82q.7-.7 1.48-1.29.77-.6 1.64-1.02.86-.41 1.85-.65.99-.24 2.16-.24 1.89 0 3.36.65 1.46.64 2.44 1.8.98 1.16 1.48 2.76.51 1.61.51 3.55v14.69h-5.56V93.85q0-2.12-.97-3.28-.96-1.16-2.94-1.16-1.44 0-2.7.66-1.26.65-2.39 1.77v16.7h-5.56V85.45h3.4q1.08 0 1.42 1.02Zm35.05 15.23V91.35q-.94-1.15-2.05-1.62-1.12-.47-2.4-.47-1.26 0-2.27.47-1.02.47-1.74 1.43-.72.95-1.1 2.43-.38 1.47-.38 3.48 0 2.02.33 3.43.32 1.4.93 2.29.61.89 1.48 1.28.88.4 1.96.4 1.73 0 2.95-.72 1.21-.72 2.29-2.05Zm0-26.6h5.56v33.44h-3.4q-1.1 0-1.39-1.01l-.47-2.23q-1.4 1.6-3.21 2.59-1.81.99-4.22.99-1.89 0-3.46-.79-1.58-.79-2.71-2.28-1.14-1.5-1.76-3.7-.62-2.21-.62-5.04 0-2.57.7-4.78.7-2.2 2-3.82 1.31-1.62 3.13-2.53 1.82-.91 4.09-.91 1.94 0 3.31.61 1.37.6 2.45 1.64V75.1Zm18.77 21.15h10.35l-3.96-10.82q-.29-.72-.61-1.71-.31-.99-.63-2.13-.29 1.14-.61 2.14-.31 1.01-.6 1.75l-3.94 10.77Zm8.26-20.24 12.78 32.53h-4.68q-.79 0-1.29-.39-.49-.4-.74-.98l-2.43-6.64h-13.48l-2.43 6.64q-.18.52-.69.94-.52.43-1.29.43h-4.72l12.8-32.53h6.17Z"/></svg>