<svg xmlns="http://www.w3.org/2000/svg" width="184" height="184" viewBox="0 0 184 184"><rect width="100%" height="100%" fill="#DDDDDD"/><path fill="#999999" d="M86.35 92.005q0 5-1.66 9.27-1.65 4.27-4.68 7.39-3.02 3.12-7.27 4.87-4.26 1.74-9.45 1.74-5.17 0-9.42-1.74-4.25-1.75-7.29-4.87t-4.71-7.39q-1.67-4.27-1.67-9.27 0-5.01 1.67-9.28t4.71-7.39q3.04-3.12 7.29-4.86 4.25-1.75 9.42-1.75 3.46 0 6.52.8 3.05.8 5.61 2.27 2.55 1.46 4.58 3.56 2.03 2.09 3.45 4.68 1.41 2.58 2.16 5.6.74 3.03.74 6.37Zm-8.67 0q0-3.75-1.01-6.73-1-2.98-2.86-5.06-1.86-2.07-4.52-3.18-2.66-1.1-6-1.1t-6 1.1q-2.67 1.11-4.54 3.18-1.87 2.08-2.88 5.06-1.01 2.98-1.01 6.73 0 3.74 1.01 6.72 1.01 2.98 2.88 5.04 1.87 2.06 4.54 3.17 2.66 1.1 6 1.1t6-1.1q2.66-1.11 4.52-3.17 1.86-2.06 2.86-5.04 1.01-2.98 1.01-6.72Zm24.6 16.15h8.57q2.37 0 3.97-.56 1.61-.57 2.57-1.51.96-.95 1.38-2.21.43-1.26.43-2.68 0-1.48-.47-2.66-.47-1.18-1.48-2.01-1.01-.84-2.6-1.28-1.59-.44-3.83-.44h-8.54v13.35Zm7.22-32.38h-7.22v13.17h6.75q4.34 0 6.56-1.58 2.22-1.57 2.22-5 0-3.56-2.01-5.07-2.02-1.52-6.3-1.52Zm-15.69-6.55h15.69q4.47 0 7.65.85 3.18.85 5.22 2.43 2.03 1.57 2.97 3.81.95 2.23.95 5.04 0 1.6-.47 3.07-.48 1.46-1.47 2.74-.99 1.28-2.52 2.32-1.53 1.04-3.64 1.76 9.39 2.11 9.39 10.14 0 2.9-1.1 5.36-1.11 2.45-3.22 4.23-2.11 1.78-5.19 2.79-3.09 1.01-7.06 1.01h-17.2v-45.55Zm49.99 0v45.55h-8.5v-45.55h8.5Z"/></svg>