<svg width="184" height="184" viewBox="0 0 184 184" fill="none" xmlns="http://www.w3.org/2000/svg">
<g filter="url(#filter0_dd_175_13457)">
<g clip-path="url(#clip0_175_13457)">
<rect width="160" height="160" transform="translate(10 8)" fill="white"/>
<path fill-rule="evenodd" clip-rule="evenodd" d="M129.339 97.8369L130.111 82.6324L123.338 79.2114L123.512 75.7906H153.339L153.175 79.0214L145.259 82.6324L144.477 98.0271L151.833 101.828L151.62 106.009H120.873L121.065 102.208L129.339 97.8369Z" fill="#FF7313" stroke="black" stroke-width="2" stroke-miterlimit="2.6131"/>
<path fill-rule="evenodd" clip-rule="evenodd" d="M97.0448 98.2447H92.5338L92.8077 92.6386L97.3264 92.6379C99.7202 92.5429 100.787 94.6809 100.18 96.0589C100.18 96.0589 99.9505 98.1497 97.0448 98.2447ZM97.5996 87.3626H93.0885L93.3632 82.0963H98.1081C99.9034 82.0491 101.193 83.3724 100.802 85.0547C100.802 85.0547 100.687 87.364 97.5996 87.3626ZM110.522 75.7385C110.522 75.7385 116.276 75.1207 117.39 82.4182C117.39 82.4182 117.849 87.4501 112.736 90.4001C118.31 92.0103 117.297 98.7572 117.297 98.7572C115.613 106.423 107.767 105.985 107.767 105.985H69.7947L70.0267 102.184L77.1047 97.819L77.7799 82.4084L71.1446 79.1851L71.3767 75.7636L110.522 75.7385Z" fill="#FF7313" stroke="black" stroke-width="2" stroke-miterlimit="2.6131"/>
<path fill-rule="evenodd" clip-rule="evenodd" d="M47.8932 79.8993H48.7773C50.8109 79.8993 52.373 81.6012 52.2665 83.7003L51.5684 97.459C51.4616 99.5581 49.7269 101.26 47.6929 101.26H46.809C44.7754 101.26 43.2133 99.5581 43.3194 97.459L44.0182 83.7003C44.1245 81.6012 45.8596 79.8993 47.8932 79.8993ZM40.4154 75.7627H56.757C63.8756 75.7627 69.3436 81.719 68.9702 89.0665L68.7868 92.6775C68.4137 100.026 62.3412 105.981 55.2234 105.981H38.8817C31.7641 105.981 26.296 100.026 26.6691 92.6775L26.8518 89.0665C27.2253 81.719 33.2978 75.7627 40.4154 75.7627Z" fill="#FF7313" stroke="black" stroke-width="2" stroke-miterlimit="2.6131"/>
<path d="M146.622 94.891C146.622 94.1248 146.923 93.4299 147.41 92.9284C147.896 92.4263 148.568 92.1156 149.31 92.1156C150.053 92.1156 150.725 92.4263 151.211 92.9284C151.698 93.4297 151.999 94.1246 151.999 94.891C151.999 95.6567 151.698 96.3508 151.211 96.8529H151.21C150.724 97.3549 150.052 97.6656 149.31 97.6656C148.57 97.6656 147.898 97.3549 147.411 96.8529C147.411 96.8522 147.41 96.8522 147.41 96.8515C146.923 96.3487 146.622 95.6552 146.622 94.891ZM149.312 95.2205H148.716V96.2732H148.217V93.4862L149.605 93.4855C150.002 93.4966 150.292 93.7095 150.432 93.9792C150.492 94.0963 150.525 94.224 150.527 94.3509V94.3523C150.527 94.4819 150.497 94.6131 150.432 94.7337C150.336 94.9091 150.167 95.0582 149.918 95.1443L150.627 96.3226H149.975L149.312 95.2205ZM148.716 94.7058C149.012 94.7058 149.266 94.6865 149.599 94.6865H149.643L149.645 94.6886C149.833 94.6533 149.947 94.5755 149.998 94.4827C150.019 94.4445 150.029 94.4001 150.028 94.3564C150.028 94.3099 150.016 94.2622 149.994 94.2197C149.932 94.1004 149.792 94.0055 149.592 93.9999H148.716V94.7058ZM147.778 93.3085C147.387 93.7134 147.145 94.2732 147.145 94.891C147.145 95.5088 147.386 96.0685 147.778 96.4721L147.778 96.4728C148.17 96.877 148.712 97.1268 149.31 97.1268C149.91 97.1268 150.451 96.8765 150.843 96.4728V96.4721C151.235 96.0671 151.477 95.5088 151.477 94.891C151.477 94.2732 151.235 93.7134 150.843 93.3092C150.45 92.9042 149.909 92.6539 149.31 92.6539C148.713 92.6539 148.171 92.9042 147.778 93.3085Z" fill="black"/>
</g>
</g>
<defs>
<filter id="filter0_dd_175_13457" x="0" y="0" width="184" height="184" filterUnits="userSpaceOnUse" color-interpolation-filters="sRGB">
<feFlood flood-opacity="0" result="BackgroundImageFix"/>
<feColorMatrix in="SourceAlpha" type="matrix" values="0 0 0 0 0 0 0 0 0 0 0 0 0 0 0 0 0 0 127 0" result="hardAlpha"/>
<feOffset dx="2" dy="4"/>
<feGaussianBlur stdDeviation="6"/>
<feComposite in2="hardAlpha" operator="out"/>
<feColorMatrix type="matrix" values="0 0 0 0 0 0 0 0 0 0 0 0 0 0 0 0 0 0 0.12 0"/>
<feBlend mode="normal" in2="BackgroundImageFix" result="effect1_dropShadow_175_13457"/>
<feColorMatrix in="SourceAlpha" type="matrix" values="0 0 0 0 0 0 0 0 0 0 0 0 0 0 0 0 0 0 127 0" result="hardAlpha"/>
<feOffset dx="2" dy="2"/>
<feGaussianBlur stdDeviation="2"/>
<feComposite in2="hardAlpha" operator="out"/>
<feColorMatrix type="matrix" values="0 0 0 0 0 0 0 0 0 0 0 0 0 0 0 0 0 0 0.04 0"/>
<feBlend mode="normal" in2="effect1_dropShadow_175_13457" result="effect2_dropShadow_175_13457"/>
<feBlend mode="normal" in="SourceGraphic" in2="effect2_dropShadow_175_13457" result="shape"/>
</filter>
<clipPath id="clip0_175_13457">
<rect x="10" y="8" width="160" height="160" rx="8" fill="white"/>
</clipPath>
</defs>
</svg>
