<svg width="184" height="184" viewBox="0 0 184 184" fill="none" xmlns="http://www.w3.org/2000/svg">
<g filter="url(#filter0_dd_175_13455)">
<g clip-path="url(#clip0_175_13455)">
<rect width="160" height="160" transform="translate(10 8)" fill="white"/>
<path fill-rule="evenodd" clip-rule="evenodd" d="M88.7654 51.3875C108.194 51.3875 124 67.8095 124 87.9953C124 108.186 108.194 124.612 88.7654 124.612C82.6025 124.612 76.536 122.933 71.2222 119.754C66.0704 116.674 61.7155 112.253 58.6294 106.971C58.0785 106.027 58.3674 104.799 59.2746 104.226C60.1819 103.654 61.3641 103.954 61.9149 104.897C67.6667 114.741 77.7042 120.618 88.7654 120.618C106.074 120.618 120.156 105.983 120.156 87.9953C120.156 70.0125 106.074 55.3827 88.7654 55.3827C80.1228 55.3827 72.0747 58.9527 66.1047 65.4355C65.3709 66.2327 64.154 66.2606 63.3869 65.4975C62.6203 64.735 62.5935 63.4702 63.3277 62.6735C70.03 55.3956 79.0639 51.3875 88.7654 51.3875ZM91.2024 70.325C97.2352 70.325 101.275 74.6528 101.275 81.0277V90.091C101.275 96.4659 97.2352 100.793 91.2024 100.793C88.9335 100.793 86.7752 100.15 84.8385 99.0386V111.262C84.8385 112.372 84.008 113.25 82.957 113.25C81.9045 113.25 81.075 112.372 81.075 111.262V74.3608C81.075 73.1907 81.7949 72.1963 82.846 71.787C85.5026 70.7932 88.3246 70.325 91.2024 70.325ZM57.7205 70.325C61.055 70.325 63.8604 72.7959 64.6223 76.1165C64.7908 76.1039 64.9608 76.0976 65.1317 76.0976C69.0499 76.0976 72.2375 79.5091 72.2375 83.7024C72.2375 86.3995 70.92 88.8116 68.8868 90.1654C69.2252 91.0623 69.4031 92.0286 69.4031 93.0207C69.4031 97.214 66.2154 100.625 62.2973 100.625C60.5937 100.625 58.981 99.9736 57.7205 98.8364C56.4595 99.9736 54.8452 100.625 53.1402 100.625C49.2221 100.625 46.0344 97.214 46.0344 93.0207C46.0344 92.0281 46.2122 91.0612 46.5517 90.1648C44.5175 88.811 43.2 86.3995 43.2 83.7024C43.2 79.5091 46.3876 76.0976 50.3057 76.0976C50.4767 76.0976 50.6466 76.1039 50.8151 76.1165C51.5775 72.7959 54.3845 70.325 57.7205 70.325ZM91.2023 74.1124C88.9966 74.1124 86.902 74.4582 84.8625 75.0901V94.5358C86.5712 96.2045 88.8314 96.8375 91.2023 96.8375C95.1167 96.8375 97.4875 94.3635 97.4875 90.2218V80.7286C97.4875 76.5864 95.1167 74.1124 91.2023 74.1124ZM57.7205 75.375C55.8931 75.375 54.4061 76.9121 54.4061 78.8014C54.4061 78.9551 54.4159 79.1063 54.4356 79.2503L54.9288 82.8854L51.7309 81.2984C51.2824 81.076 50.8005 80.9635 50.298 80.9635C48.4726 80.9635 46.9875 82.5006 46.9875 84.39C46.9875 86.0477 48.1269 87.4652 49.697 87.7614L53.1629 88.4155L50.7327 91.055C50.147 91.6912 49.8249 92.5275 49.8249 93.4111C49.8249 95.3004 51.31 96.8375 53.1354 96.8375C54.352 96.8375 55.4687 96.1493 56.05 95.0413L57.7205 91.8566L59.3914 95.0413C59.9727 96.1493 61.088 96.8375 62.3021 96.8375C64.1275 96.8375 65.6126 95.3004 65.6126 93.4111C65.6126 92.528 65.2905 91.6902 64.7058 91.052L62.2888 88.4144L65.7439 87.7619C67.3121 87.4652 68.45 86.0472 68.45 84.39C68.45 82.5006 66.9649 80.9635 65.1395 80.9635C64.6369 80.9635 64.155 81.076 63.7066 81.2984L60.5102 82.8849L61.0019 79.2513C61.0216 79.1068 61.0314 78.9551 61.0314 78.8014C61.0314 76.9121 59.5463 75.375 57.7205 75.375Z" fill="#222222"/>
</g>
</g>
<defs>
<filter id="filter0_dd_175_13455" x="0" y="0" width="184" height="184" filterUnits="userSpaceOnUse" color-interpolation-filters="sRGB">
<feFlood flood-opacity="0" result="BackgroundImageFix"/>
<feColorMatrix in="SourceAlpha" type="matrix" values="0 0 0 0 0 0 0 0 0 0 0 0 0 0 0 0 0 0 127 0" result="hardAlpha"/>
<feOffset dx="2" dy="4"/>
<feGaussianBlur stdDeviation="6"/>
<feComposite in2="hardAlpha" operator="out"/>
<feColorMatrix type="matrix" values="0 0 0 0 0 0 0 0 0 0 0 0 0 0 0 0 0 0 0.12 0"/>
<feBlend mode="normal" in2="BackgroundImageFix" result="effect1_dropShadow_175_13455"/>
<feColorMatrix in="SourceAlpha" type="matrix" values="0 0 0 0 0 0 0 0 0 0 0 0 0 0 0 0 0 0 127 0" result="hardAlpha"/>
<feOffset dx="2" dy="2"/>
<feGaussianBlur stdDeviation="2"/>
<feComposite in2="hardAlpha" operator="out"/>
<feColorMatrix type="matrix" values="0 0 0 0 0 0 0 0 0 0 0 0 0 0 0 0 0 0 0.04 0"/>
<feBlend mode="normal" in2="effect1_dropShadow_175_13455" result="effect2_dropShadow_175_13455"/>
<feBlend mode="normal" in="SourceGraphic" in2="effect2_dropShadow_175_13455" result="shape"/>
</filter>
<clipPath id="clip0_175_13455">
<rect x="10" y="8" width="160" height="160" rx="8" fill="white"/>
</clipPath>
</defs>
</svg>
