<svg xmlns="http://www.w3.org/2000/svg"  fill="none" stroke="#6E768D" stroke-width="2" viewBox="0 0 50 50" width="24px" height="24px"><path d="M 16.380859 4 C 9.5545055 4 4 9.5545055 4 16.380859 L 4 33.619141 C 4 40.445495 9.5545055 46 16.380859 46 L 33.619141 46 C 40.445495 46 46 40.445495 46 33.619141 L 46 16.380859 C 46 9.5545055 40.445495 4 33.619141 4 L 16.380859 4 z M 16.380859 6 L 33.619141 6 C 39.364786 6 44 10.635214 44 16.380859 L 44 33.619141 C 44 39.364786 39.364786 44 33.619141 44 L 16.380859 44 C 10.635214 44 6 39.364786 6 33.619141 L 6 16.380859 C 6 10.635214 10.635214 6 16.380859 6 z M 37.203125 16.628906 C 36.897671 16.625906 36.588652 16.704536 36.306641 16.880859 L 30.673828 20.400391 C 29.994839 18.439614 28.178052 17 25.994141 17 L 13 17 A 1.0001 1.0001 0 0 0 12 18 L 12 27.994141 C 12 30.746526 14.253474 33 17.005859 33 L 30 33 A 1.0001 1.0001 0 0 0 31 32 L 31 28.802734 L 36.306641 32.119141 C 37.434686 32.824447 39 31.957395 39 30.626953 L 39 18.373047 C 39 17.375216 38.119486 16.63778 37.203125 16.628906 z M 37 18.804688 L 37 30.195312 L 31 26.445312 L 31 22.554688 L 37 18.804688 z M 14 19 L 25.994141 19 C 27.665755 19 29 20.334245 29 22.005859 L 29 27 L 29 31 L 17.005859 31 C 15.334245 31 14 29.665755 14 27.994141 L 14 19 z" fill="#6E768D"/></svg>
