<svg width="24" height="24" viewBox="0 0 24 24" fill="none" xmlns="http://www.w3.org/2000/svg">
<path d="M20.7785 22.8L16.1396 18.048C15.4148 18.624 14.5812 19.08 13.6389 19.416C12.6967 19.752 11.694 19.92 10.6309 19.92C7.99733 19.92 5.76847 19.014 3.94431 17.202C2.12015 15.39 1.20807 13.176 1.20807 10.56C1.20807 7.94401 2.12015 5.73001 3.94431 3.91801C5.76847 2.10601 7.99733 1.20001 10.6309 1.20001C13.2644 1.20001 15.4933 2.10601 17.3175 3.91801C19.1416 5.73001 20.0537 7.94401 20.0537 10.56C20.0537 11.616 19.8846 12.612 19.5463 13.548C19.2081 14.484 18.749 15.312 18.1691 16.032L22.8081 20.784L20.7785 22.8ZM10.6309 17.04C12.443 17.04 13.9832 16.41 15.2517 15.15C16.5202 13.89 17.1544 12.36 17.1544 10.56C17.1544 8.76001 16.5202 7.23001 15.2517 5.97001C13.9832 4.71001 12.443 4.08001 10.6309 4.08001C8.81881 4.08001 7.27854 4.71001 6.01008 5.97001C4.74163 7.23001 4.1074 8.76001 4.1074 10.56C4.1074 12.36 4.74163 13.89 6.01008 15.15C7.27854 16.41 8.81881 17.04 10.6309 17.04Z" fill="white"/>
</svg>
