<svg width="32" height="32" viewBox="0 0 32 32" fill="none" xmlns="http://www.w3.org/2000/svg">
<rect width="32" height="32" rx="16" fill="#7578EA"/>
<path d="M8 26C7.71667 26 7.47917 25.9042 7.2875 25.7125C7.09583 25.5208 7 25.2833 7 25V20C7 19.45 7.19583 18.9792 7.5875 18.5875C7.97917 18.1958 8.45 18 9 18V14C9 13.45 9.19583 12.9792 9.5875 12.5875C9.97917 12.1958 10.45 12 11 12H15V10.55C14.7 10.35 14.4583 10.1083 14.275 9.825C14.0917 9.54167 14 9.2 14 8.8C14 8.55 14.05 8.30417 14.15 8.0625C14.25 7.82083 14.4 7.6 14.6 7.4L16 6L17.4 7.4C17.6 7.6 17.75 7.82083 17.85 8.0625C17.95 8.30417 18 8.55 18 8.8C18 9.2 17.9083 9.54167 17.725 9.825C17.5417 10.1083 17.3 10.35 17 10.55V12H21C21.55 12 22.0208 12.1958 22.4125 12.5875C22.8042 12.9792 23 13.45 23 14V18C23.55 18 24.0208 18.1958 24.4125 18.5875C24.8042 18.9792 25 19.45 25 20V25C25 25.2833 24.9042 25.5208 24.7125 25.7125C24.5208 25.9042 24.2833 26 24 26H8ZM11 18H21V14H11V18ZM9 24H23V20H9V24Z" fill="white"/>
</svg>
