<svg width="40" height="40" viewBox="0 0 40 40" fill="none" xmlns="http://www.w3.org/2000/svg">
<rect x="9.19995" y="12.4" width="21.6" height="15.6" rx="4" fill="#EFEFEF"/>
<path fill-rule="evenodd" clip-rule="evenodd" d="M12.0044 16.7292L20.0001 23.0662L12.0044 28L12.0044 16.7292Z" fill="#E3E3E3"/>
<path fill-rule="evenodd" clip-rule="evenodd" d="M29.1577 12.4H11.1694C10.0817 12.4 9.19995 13.2818 9.19995 14.3695V14.3695L23.5965 28H29.1577L29.1577 12.4Z" fill="#DFDFDF"/>
<path fill-rule="evenodd" clip-rule="evenodd" d="M12 16.6741L20.0002 23.0663L19.0428 23.657L12 17.0248V16.6741Z" fill="#CCCCCC"/>
<path d="M9.19995 15.2C9.19995 13.6536 10.4536 12.4 12 12.4V12.4V28V28C10.4536 28 9.19995 26.7464 9.19995 25.2V15.2Z" fill="#E73E35"/>
<path d="M28 12.4V12.4C29.5464 12.4 30.8 13.6536 30.8 15.2V25.2C30.8 26.7464 29.5464 28 28 28V28V12.4Z" fill="#C62415"/>
<path fill-rule="evenodd" clip-rule="evenodd" d="M11.0989 12.4V12.4C10.0502 12.4 9.2 13.2502 9.2 14.2989V14.3695L12 17.0248V16.6845L11.0989 12.4Z" fill="#C62415"/>
<path fill-rule="evenodd" clip-rule="evenodd" d="M11.4205 14.1802C10.6834 13.5893 11.1012 12.4 12.046 12.4H27.9539C28.8987 12.4 29.3165 13.5893 28.5794 14.1802L20 21.0585L11.4205 14.1802Z" fill="#EFEFEF"/>
<path fill-rule="evenodd" clip-rule="evenodd" d="M28.825 12.598C29.3715 12.2439 30.0964 12.3784 30.4797 12.8927L30.5224 12.9537L30.5714 13.0285C30.9509 13.6073 30.8474 14.3705 30.3384 14.8294L30.2779 14.881L20.0001 23.0662L9.72199 14.881C9.16117 14.4295 9.03445 13.6295 9.42852 13.0285L9.47755 12.9537C9.84747 12.3895 10.6074 12.2303 11.1749 12.598C11.2101 12.6209 11.2442 12.6456 11.277 12.6719L19.9999 19.6948L28.7229 12.6719L28.773 12.6337L28.825 12.598Z" fill="#E73E35"/>
</svg>
