<svg version="1.1" xmlns="http://www.w3.org/2000/svg" x="0px" y="0px"
	 viewBox="0 0 512 512">
<style type="text/css">
	.st0{fill:#FFFFFF;}
</style>
<g>
	<path class="st0" d="M262.1,0.1c80.5,0,155,35.7,204.5,95.8c5.9,7.2,4.7,17.8-2.6,23.5c-7.4,5.8-18.2,4.6-24.1-2.6
		c-43-52.3-107.7-83.3-177.7-83.3C136.3,33.5,34.3,133.1,34.3,256s102,222.5,227.8,222.5c71,0,136.6-31.9,179.6-85.6
		c5.8-7.3,16.6-8.6,24.1-2.9c7.4,5.7,8.8,16.2,2.9,23.5c-49.4,61.7-124.9,98.4-206.6,98.4C117.3,511.9,0,397.4,0,256
		S117.3,0.1,262.1,0.1z M437.6,183.3l69.3,69.3c6.7,6.7,6.8,17.4,0.3,24l-67.7,67.7c-6.5,6.5-17.3,6.4-24-0.3
		c-6.7-6.7-6.8-17.4-0.3-24l39.6-39.6H191c-9.5,0-17.1-7.5-17.1-16.7c0-9.2,7.7-16.7,17.1-16.7l262.8,0L413.9,207
		c-6.7-6.7-6.8-17.4-0.3-24C420.2,176.5,430.9,176.6,437.6,183.3z"/>
</g>
</svg>
