<svg width="40" height="40" viewBox="0 0 40 40" fill="none" xmlns="http://www.w3.org/2000/svg">
<path fill-rule="evenodd" clip-rule="evenodd" d="M16.4 12.8H19.2V12.8V9.99995V9.99995C19.2 8.45355 17.9464 7.19995 16.4 7.19995C14.8536 7.19995 13.6 8.45355 13.6 9.99995C13.6 11.5463 14.8536 12.8 16.4 12.8Z" fill="#00C7F5"/>
<path fill-rule="evenodd" clip-rule="evenodd" d="M7.19995 16.7999C7.19995 15.4744 8.27447 14.3999 9.59995 14.3999H16.8C18.1254 14.3999 19.2 15.4744 19.2 16.7999C19.2 18.1254 18.1254 19.1999 16.8 19.1999H9.59995C8.27447 19.1999 7.19995 18.1254 7.19995 16.7999Z" fill="#00C7F5"/>
<path fill-rule="evenodd" clip-rule="evenodd" d="M12.8 23.5999V20.7999V20.7999H9.99995V20.7999C8.45355 20.7999 7.19995 22.0535 7.19995 23.5999C7.19995 25.1463 8.45355 26.3999 9.99995 26.3999C11.5463 26.3999 12.8 25.1463 12.8 23.5999Z" fill="#F40058"/>
<path fill-rule="evenodd" clip-rule="evenodd" d="M16.7999 20.7999C18.1254 20.7999 19.1999 21.8744 19.1999 23.1999V30.3999C19.1999 31.7254 18.1254 32.7999 16.7999 32.7999C15.4744 32.7999 14.3999 31.7254 14.3999 30.3999V23.1999C14.3999 21.8744 15.4744 20.7999 16.7999 20.7999Z" fill="#F40058"/>
<path fill-rule="evenodd" clip-rule="evenodd" d="M23.5999 27.2H20.7999V27.2V30V30C20.7999 31.5463 22.0535 32.8 23.5999 32.8C25.1463 32.8 26.3999 31.5463 26.3999 30C26.3999 28.4536 25.1463 27.2 23.5999 27.2Z" fill="#F6B000"/>
<path fill-rule="evenodd" clip-rule="evenodd" d="M20.7999 23.1999C20.7999 21.8744 21.8744 20.7999 23.1999 20.7999H30.3999C31.7254 20.7999 32.7999 21.8744 32.7999 23.1999C32.7999 24.5254 31.7254 25.5999 30.3999 25.5999H23.1999C21.8744 25.5999 20.7999 24.5254 20.7999 23.1999Z" fill="#F6B000"/>
<path fill-rule="evenodd" clip-rule="evenodd" d="M27.2 16.4V19.2V19.2H30V19.2C31.5463 19.2 32.8 17.9464 32.8 16.4C32.8 14.8536 31.5463 13.6 30 13.6C28.4536 13.6 27.2 14.8536 27.2 16.4Z" fill="#00BA78"/>
<path fill-rule="evenodd" clip-rule="evenodd" d="M23.1999 7.19995C24.5254 7.19995 25.5999 8.27447 25.5999 9.59995V16.8C25.5999 18.1254 24.5254 19.2 23.1999 19.2C21.8744 19.2 20.7999 18.1254 20.7999 16.8V9.59995C20.7999 8.27447 21.8744 7.19995 23.1999 7.19995Z" fill="#00BA78"/>
</svg>
