<svg width="40" height="40" viewBox="0 0 40 40" fill="none" xmlns="http://www.w3.org/2000/svg">
<g id="LOGO/Anchor_circle">
<path id="Vector" d="M20.0029 2.0526e-07C16.047 -0.000566416 12.1798 1.172 8.89039 3.36941C5.60097 5.56682 3.03707 8.69037 1.52297 12.345C0.00885861 15.9996 -0.387449 20.0212 0.384164 23.9011C1.15578 27.781 3.06065 31.3449 5.85787 34.1421C8.65509 36.9393 12.219 38.8442 16.0989 39.6158C19.9788 40.3874 24.0004 39.9911 27.655 38.477C31.3096 36.9629 34.4332 34.399 36.6306 31.1096C38.828 27.8202 40.0006 23.953 40 19.9971C39.9992 14.6938 37.8922 9.60789 34.1421 5.85786C30.3921 2.10784 25.3062 0.000759832 20.0029 2.0526e-07ZM20.0029 32.4137C16.7489 32.4099 13.6294 31.1156 11.3285 28.8147C9.02765 26.5139 7.73335 23.3943 7.72956 20.1404H11.5915C11.5918 22.0352 12.232 23.8744 13.4082 25.36C14.5844 26.8455 16.2277 27.8905 18.0719 28.3254V20.1404H16.2642V16.2785H18.0719V11.7347H16.2642V8.45151C17.4233 7.8827 18.6973 7.58695 19.9885 7.58695C21.2797 7.58695 22.5538 7.8827 23.7129 8.45151V11.7347H21.9281V16.2785H23.733V20.1404H21.9281V28.3254C23.7718 27.8899 25.4145 26.8447 26.5901 25.3592C27.7657 23.8737 28.4054 22.0348 28.4057 20.1404H32.2705C32.2705 23.3958 30.9786 26.5182 28.6786 28.822C26.3785 31.1258 23.2583 32.4227 20.0029 32.428V32.4137Z" fill="#4DD699"/>
</g>
</svg>
